# xmcd CD database file
#
# Track frame offsets:
#	150
#	12022
#	21926
#	36285
#	45421
#	56360
#	67801
#	78380
#	89132
#	99108
#	110771
#	120820
#	130645
#	141993
#	154175
#	169474
#	183638
#	195657
#	204224
#	214996
#	226682
#	235095
#	245573
#	264929
#	277034
#	285475
#	296528
#	310380
#	323530
#	333303
#
# Disc length: 4681 seconds
#
# Revision: 3
# Processed by: cddbd v1.4PL0 Copyright (c) Steve Scherf et al.
# Submitted via: CDex 1.40Beta9
#
DISCID=a112471e
DTITLE=SOUZ--30 - SOUZ 30
DYEAR=1900
DGENRE=Blues
TTITLE0=EVRO
TTITLE1=OTPETIE MOSHENNIKI
TTITLE2=IVANUSHKI
TTITLE3=KRASKI
TTITLE4=GYBIN
TTITLE5=HI-FI
TTITLE6=BYLANOVA
TTITLE7=BIRUS
TTITLE8=LENINGRAD
TTITLE9=AKVARIUM
TTITLE10=BISOKOSNIY GOD
TTITLE11=BYINOV
TTITLE12=BEGLES
TTITLE13=TATY
TTITLE14=LYBE
TTITLE15=I KYPALA
TTITLE16=KIRKOROV
TTITLE17=POMAN'''H
TTITLE18=ENDI#IGOREK
TTITLE19=RUKI
TTITLE20=KET
TTITLE21=DEVOCHKI
TTITLE22=DISK.AVARIA
TTITLE23=ZVEZDI DISKOTEK
TTITLE24=YAK--40
TTITLE25=ZOLOTOE KOLZO
TTITLE26=NOCHNIE SNAIPERI
TTITLE27=ALISA
TTITLE28=KREMATORIY
TTITLE29=BI-2
EXTD=ID3G: 0
EXTT0=
EXTT1=
EXTT2=
EXTT3=
EXTT4=
EXTT5=
EXTT6=
EXTT7=
EXTT8=
EXTT9=
EXTT10=
EXTT11=
EXTT12=
EXTT13=
EXTT14=
EXTT15=
EXTT16=
EXTT17=
EXTT18=
EXTT19=
EXTT20=
EXTT21=
EXTT22=
EXTT23=
EXTT24=
EXTT25=
EXTT26=
EXTT27=
EXTT28=
EXTT29=
PLAYORDER=
